PathFileType	4	(X/Y/Z)	Kaydara																																																																																																																									
DataRate	CameraRate	NumFrames	NumMarkers	Units	OrigDataRate	OrigDataStartFrame	OrigNumFrames																																																																																																																					
30	30	4	41	mm	30	80	158																																																																																																																					
Frame#	Time	NABA_LFHD			NABA_RFHD			NABA_LBHD			NABA_RBHD			NABA_LFTShould			NABA_RFTShould			NABA_LRRShould			NABA_RRRShould			NABA_T10			NABA_STRN			NABA_TRUN			NABA_LSHO			NABA_LUPA			NABA_LELB			NABA_LFRM			NABA_LWRA			NABA_LWRB			NABA_LFIN			NABA_RSHO			NABA_RUPA			NABA_RELB			NABA_RFRM			NABA_RWRA			NABA_RWRB			NABA_RFIN			NABA_LFWT			NABA_RFWT			NABA_LBWT			NABA_RBWT			NABA_LTHI			NABA_LKNE			NABA_LSHN			NABA_LANK			NABA_LHEE			NABA_LTOE			NABA_RTHI			NABA_RKNE			NABA_RSHN			NABA_RANK			NABA_RHEE			NABA_RTOE		
		X1	Y1	Z1	X2	Y2	Z2	X3	Y3	Z3	X4	Y4	Z4	X5	Y5	Z5	X6	Y6	Z6	X7	Y7	Z7	X8	Y8	Z8	X9	Y9	Z9	X10	Y10	Z10	X11	Y11	Z11	X12	Y12	Z12	X13	Y13	Z13	X14	Y14	Z14	X15	Y15	Z15	X16	Y16	Z16	X17	Y17	Z17	X18	Y18	Z18	X19	Y19	Z19	X20	Y20	Z20	X21	Y21	Z21	X22	Y22	Z22	X23	Y23	Z23	X24	Y24	Z24	X25	Y25	Z25	X26	Y26	Z26	X27	Y27	Z27	X28	Y28	Z28	X29	Y29	Z29	X30	Y30	Z30	X31	Y31	Z31	X32	Y32	Z32	X33	Y33	Z33	X34	Y34	Z34	X35	Y35	Z35	X36	Y36	Z36	X37	Y37	Z37	X38	Y38	Z38	X39	Y39	Z39	X40	Y40	Z40	X41	Y41	Z41
																																																																																																																												
80	2.643	302.64759	1606.06949	-595.58567	203.51694	1596.12854	-455.42881	223.63768	1569.55307	-688.40385	111.53156	1576.14899	-495.53848	273.15762	1362.77145	-523.44913	128.32371	1340.55267	-510.14748	263.79284	1388.16132	-651.63971	120.5279	1377.27524	-634.95041	218.03316	1210.914	-687.20398	211.35561	1320.60699	-456.9429	222.68442	1229.88693	-394.54426	365.95634	1378.83194	-591.38157	440.11333	1150.3936	-617.32868	459.43779	1066.39893	-599.74319	451.2392	989.3045	-614.68246	436.96106	849.05678	-510.69958	503.41171	853.15491	-535.33195	506.94	801.14601	-482.96432	40.07512	1355.58777	-572.15076	10.38872	1158.32932	-644.29871	-35.29388	1041.62231	-612.97409	-44.05289	947.89314	-613.12588	7.07025	816.42303	-538.43468	-67.23897	808.74718	-546.74404	-55.43162	772.85027	-509.6376	344.24324	934.74586	-474.98787	85.38439	950.81642	-476.95206	299.18348	989.98009	-641.16447	130.77346	1025.19218	-648.1382	336.20575	637.92149	-615.97767	320.06638	488.24123	-560.78007	259.84175	299.73846	-532.94861	279.61374	144.70738	-592.63302	222.07216	97.86454	-648.08228	233.0706	63.02986	-469.39507	60.07292	655.68176	-571.5501	62.66338	508.73013	-429.92023	76.85335	347.9335	-523.58883	85.17228	224.70724	-684.5475	141.42852	219.50125	-756.25473	90.44435	96.8612	-628.74569
81	2.677	301.93716	1605.55405	-555.79685	210.93515	1593.70544	-409.92535	217.55857	1569.06876	-644.03816	116.9866	1573.39386	-444.71733	270.53442	1358.32703	-480.98095	123.40419	1334.43817	-473.88859	268.19504	1386.8811	-607.86697	122.62839	1376.05835	-597.14336	223.58532	1211.26358	-649.99962	206.02648	1314.99649	-416.95374	216.84341	1222.93045	-356.8853	366.75266	1375.11902	-543.50075	451.30009	1146.5583	-544.89677	471.46175	1066.03081	-515.61268	468.94547	986.06087	-517.33322	434.00024	870.53589	-390.13065	504.72054	872.16644	-401.17897	497.83855	835.06042	-338.67435	39.89542	1350.28763	-538.98571	15.45674	1158.58376	-623.00713	-36.16149	1043.15796	-603.02765	-49.18699	952.24251	-615.38799	-14.84034	809.51141	-552.84771	-87.75869	809.09294	-569.33754	-85.35368	770.0415	-535.53516	349.61124	935.33401	-441.10336	90.37119	950.25345	-435.17075	300.68111	989.18976	-605.15244	127.30546	1023.37021	-609.54876	334.37412	640.11742	-586.76472	319.72498	488.84418	-536.52996	258.17785	298.13585	-517.01008	275.47213	147.16088	-586.44806	216.05059	103.74742	-642.82631	231.62609	62.92198	-466.65932	62.06325	656.76407	-507.43565	72.13273	523.49693	-353.53691	83.98403	349.87495	-420.3471	84.69745	198.21787	-555.77118	136.88566	179.00961	-629.04907	92.87786	87.94279	-476.33636
82	2.71	301.77826	1599.34067	-512.44976	215.49925	1585.69199	-363.85021	214.86301	1563.20587	-598.32714	120.65395	1565.11627	-395.95474	267.9516	1348.22357	-437.02084	123.11585	1321.06293	-436.45004	270.7922	1383.85742	-561.2336	124.83792	1373.44055	-556.04897	225.61487	1210.05348	-614.09679	202.76796	1301.46393	-376.99654	212.82478	1207.77733	-319.52946	366.01185	1368.75381	-493.86066	457.81666	1143.53531	-477.60582	479.77432	1065.2655	-440.33993	478.68919	986.39572	-425.23449	430.46333	901.32347	-279.93877	502.07123	903.4288	-282.53668	486.09249	881.82648	-213.68635	41.19744	1345.68726	-499.01245	21.77193	1162.09023	-599.30969	-35.95693	1047.58743	-592.94075	-50.49437	959.50432	-615.60455	-32.01904	809.0654	-561.65092	-101.01767	815.774	-589.98943	-109.29166	775.44113	-562.17968	351.58806	933.60397	-404.38667	91.43414	947.07809	-395.23571	298.02814	982.1814	-570.29613	126.42702	1015.63087	-572.1114	331.19564	639.62025	-556.01452	319.33056	486.30184	-512.13642	255.04955	293.7141	-503.23048	272.4049	146.81105	-579.56116	212.57772	105.65831	-639.03412	229.94682	62.62935	-465.88402	67.61669	653.41202	-451.09287	80.52139	532.83791	-287.81225	87.69601	351.65741	-325.11787	84.55867	174.7361	-425.11467	136.68032	138.66676	-491.9495	90.63243	83.78489	-323.76911
83	2.743	302.10163	1586.90109	-468.16654	219.33922	1572.35428	-317.92154	213.43603	1550.9906	-552.35363	123.6252	1551.68869	-347.99973	266.1804	1333.20465	-394.28726	122.58164	1307.8067	-397.78683	271.18427	1375.4631	-516.5332	127.45518	1366.68411	-513.77693	227.71704	1203.95157	-576.98242	201.61402	1283.1163	-338.15319	209.3466	1188.00674	-283.06631	364.02634	1359.5433	-445.7198	461.19114	1136.09573	-418.13122	484.80061	1064.70703	-370.3595	482.98981	988.93623	-340.74448	423.03696	936.65802	-183.93335	494.11427	936.64116	-182.495	476.03832	931.46873	-112.5667	42.60989	1339.65027	-459.59747	23.93765	1166.80298	-573.53275	-38.91873	1053.97194	-579.6833	-54.88606	968.62778	-610.48599	-41.57156	813.20778	-569.87919	-109.33388	824.96895	-599.44073	-120.66143	783.15247	-576.28994	349.70215	923.44543	-362.15446	88.49936	937.845	-356.70647	293.49308	968.53722	-531.85291	127.77071	1000.92773	-535.73544	333.7949	633.2349	-521.21712	317.53586	478.60508	-484.5047	251.59258	286.35019	-489.27345	270.4055	143.60468	-574.24847	211.37465	104.99551	-636.95614	227.90106	62.1167	-466.39118	73.29333	642.60345	-400.08152	87.07858	531.58836	-232.39561	90.49148	350.49118	-238.63739	86.31408	155.64046	-297.02145	139.36778	105.41791	-351.74091	87.48693	88.17852	-176.3835
